<?xml version="1.0" encoding="utf-8"?>
<!-- Generator: Adobe Illustrator 21.0.2, SVG Export Plug-In . SVG Version: 6.00 Build 0)  -->
<svg version="1.1" id="Capa_1" xmlns="http://www.w3.org/2000/svg" xmlns:xlink="http://www.w3.org/1999/xlink" x="0px" y="0px"
	 viewBox="0 0 45 45" style="enable-background:new 0 0 45 45;" xml:space="preserve">
<style type="text/css">
	.st0{fill:#EA0000;}
</style>
<path class="st0" d="M31,22.6l8.5-8.5c1.2-1.2,1.2-3.2,0-4.1l-4.1-4.1c-1.2-1.2-3.2-1.2-4.1,0l-8.8,8.3L14,5.6
	c-1.2-1.2-3.2-1.2-4.1,0L5.7,9.7c-1.2,1.2-1.2,3.2,0,4.1l8.5,8.5l-8.8,8.8c-1.2,1.2-1.2,3.2,0,4.1l4.1,4.1c1.2,1.2,3.2,1.2,4.1,0
	l8.5-8.5l8.5,8.5c1.2,1.2,3.2,1.2,4.1,0l4.1-4.1c1.2-1.2,1.2-3.2,0-4.1L31,22.6z"/>
<g id="XMLID_4229_">
</g>
<g id="XMLID_4228_">
</g>
<g id="XMLID_4227_">
</g>
<g id="XMLID_4226_">
</g>
<g id="XMLID_4225_">
</g>
<g id="XMLID_4224_">
</g>
<g id="XMLID_4223_">
</g>
<g id="XMLID_4222_">
</g>
<g id="XMLID_4221_">
</g>
<g id="XMLID_4220_">
</g>
<g id="XMLID_4219_">
</g>
<g id="XMLID_4218_">
</g>
<g id="XMLID_4217_">
</g>
<g id="XMLID_4216_">
</g>
</svg>
