<?xml version="1.0" encoding="utf-8"?>
<!-- Generator: Adobe Illustrator 21.0.2, SVG Export Plug-In . SVG Version: 6.00 Build 0)  -->
<svg version="1.1" id="Capa_1" xmlns="http://www.w3.org/2000/svg" xmlns:xlink="http://www.w3.org/1999/xlink" x="0px" y="0px"
	 viewBox="0 0 66 66" style="enable-background:new 0 0 66 66;" xml:space="preserve">
<style type="text/css">
	.st0{fill:url(#SVGID_1_);}
	.st1{fill:url(#SVGID_2_);}
	.st2{fill:#8C6239;}
	.st3{fill:#0071BC;}
</style>
<title>Mesa de trabajo 2</title>
<g>
	<g>
		<g>
			
				<radialGradient id="SVGID_1_" cx="164.2186" cy="625.4794" r="67.0317" gradientTransform="matrix(0.8856 0 0 0.8857 -98.6726 -526.1863)" gradientUnits="userSpaceOnUse">
				<stop  offset="0" style="stop-color:#FFFFFF"/>
				<stop  offset="1" style="stop-color:#A0A7AF"/>
			</radialGradient>
			<path class="st0" d="M64,33c0,17.1-13.9,31-31,31S2,50.1,2,33S15.9,2,33,2S64,15.9,64,33z"/>
		</g>
		<g>
			
				<linearGradient id="SVGID_2_" gradientUnits="userSpaceOnUse" x1="-1778.6604" y1="1027.7816" x2="-1721.2021" y2="1027.7816" gradientTransform="matrix(9.200000e-02 -0.9958 0.9958 9.200000e-02 -829.4667 -1804.1366)">
				<stop  offset="0" style="stop-color:#FDF6FA"/>
				<stop  offset="1" style="stop-color:#FFFFFF"/>
			</linearGradient>
			<path class="st1" d="M35.6,4.4c15.8,1.5,27.4,15.5,26,31.3c-1.5,15.8-15.4,27.4-31.2,26C14.6,60.2,3,46.2,4.4,30.4
				C5.9,14.6,19.8,2.9,35.6,4.4z"/>
		</g>
	</g>
	<g>
		<path class="st2" d="M28.1,48.8L28.1,48.8l1-4.7c-0.7,0.2-1.4,0.2-2,0c-0.6-0.1-1.2-0.4-1.8-0.8c-0.5-0.4-0.9-0.8-1.3-1.3
			c-0.7-1.1-0.9-2.4-0.7-3.6c0.3-1.2,1-2.3,2-2.9c1-0.7,2.3-0.9,3.5-0.7h0.1c0.7,0.1,1.3,0.4,1.9,0.8l1-4.7l-5.6-1.2
			c0.2-0.2,0.4-0.5,0.7-0.7c0.6-0.6,1.1-1.2,1.2-2.1c0.4-1.9-0.9-3.8-2.8-4.2h-0.1c-2-0.4-3.9,0.9-4.3,2.8c-0.2,0.8,0,1.6,0.3,2.4
			c0.1,0.4,0.3,0.7,0.4,1l-5.2-1.1c-0.8-0.2-1.6,0.4-1.8,1.2l-3.1,14.9c-0.2,0.8,0.4,1.6,1.2,1.8L28.1,48.8z"/>
		<path class="st3" d="M45.8,35c0.2,0.7,0.2,1.4,0,2c-0.3,1.2-1,2.3-2,3c-1.1,0.7-2.3,0.9-3.6,0.7h-0.1c-1.2-0.3-2.3-1-2.9-2
			c-0.7-1-0.9-2.3-0.7-3.5c0.1-0.7,0.4-1.4,0.8-1.9l-3.6-0.7l-0.6-0.1l-0.6-0.1L31.3,38c-0.2-0.2-0.5-0.5-0.8-0.8
			c-0.5-0.6-1.2-1-2-1.2l0,0c-1.9-0.4-3.8,0.9-4.2,2.8c-0.1,0.7-0.1,1.3,0.1,1.9c0.4,1.2,1.4,2.2,2.7,2.4c0.8,0.2,1.6,0,2.3-0.3
			c0.4-0.2,0.8-0.3,1-0.4l0,0L29,49.1l0,0l0.6,0.1l0.6,0.1l15.2,3.1c0.8,0.2,1.6-0.4,1.8-1.2L50.5,36L45.8,35z"/>
		<path class="st2" d="M52.9,16.7l-16.3-3.4l-1.4,6.8c0,0,0.7-0.4,0.9-0.5c0.7-0.4,1.6-0.5,2.4-0.4c2,0.4,3.2,2.4,2.8,4.3
			c-0.4,1.9-2.3,3.1-4.2,2.8l0,0c-0.9-0.2-1.6-0.6-2.1-1.3c-0.2-0.2-0.7-0.8-0.7-0.8L32.9,31l1.1,0.2l5.6,1.2
			c-0.1,0.1-0.5,0.5-0.8,0.8c-0.6,0.5-1,1.2-1.2,2.1c-0.4,1.9,0.9,3.8,2.8,4.2h0.1c0.9,0.2,1.8,0,2.6-0.4c0.9-0.5,1.5-1.3,1.7-2.4
			c0.2-0.8,0-1.6-0.3-2.3c-0.2-0.5-0.3-0.8-0.4-1l0,0l6.6,1.4h0.1l0.1-0.6l3.2-15.7C54.3,17.7,53.7,16.9,52.9,16.7"/>
	</g>
</g>
</svg>
