<?xml version="1.0" encoding="utf-8"?>
<!-- Generator: Adobe Illustrator 21.0.2, SVG Export Plug-In . SVG Version: 6.00 Build 0)  -->
<svg version="1.1" id="Capa_1" xmlns="http://www.w3.org/2000/svg" xmlns:xlink="http://www.w3.org/1999/xlink" x="0px" y="0px"
	 viewBox="0 0 66 66" style="enable-background:new 0 0 66 66;" xml:space="preserve">
<style type="text/css">
	.st0{fill:url(#SVGID_1_);}
	.st1{fill:url(#SVGID_2_);}
	.st2{opacity:0.35;}
	.st3{fill:#0071BC;}
	.st4{fill:#8C6239;}
</style>
<title>Mesa de trabajo 2</title>
<g>
	<g>
		<g>
			
				<radialGradient id="SVGID_1_" cx="100.8568" cy="8.8681" r="43.2352" gradientTransform="matrix(0.8856 0 0 -0.8857 -49.4015 35.2946)" gradientUnits="userSpaceOnUse">
				<stop  offset="0" style="stop-color:#FFFFFF"/>
				<stop  offset="1" style="stop-color:#A0A7AF"/>
			</radialGradient>
			<path class="st0" d="M64,33c0,17.1-13.9,31-31,31S2,50.1,2,33S15.9,2,33,2S64,15.9,64,33z"/>
		</g>
		<g>
			
				<linearGradient id="SVGID_2_" gradientUnits="userSpaceOnUse" x1="-1090.6677" y1="-205.3067" x2="-1033.2095" y2="-205.3067" gradientTransform="matrix(9.200000e-02 -0.9958 -0.9958 -9.200000e-02 -73.7415 -1043.3658)">
				<stop  offset="0" style="stop-color:#FDF6FA"/>
				<stop  offset="1" style="stop-color:#FFFFFF"/>
			</linearGradient>
			<path class="st1" d="M35.6,4.4c15.8,1.5,27.4,15.5,26,31.3c-1.5,15.8-15.4,27.4-31.2,26C14.6,60.2,3,46.2,4.4,30.4
				C5.9,14.6,19.8,2.9,35.6,4.4z"/>
		</g>
	</g>
	<g>
		<g class="st2">
			<path d="M48.3,41h-0.2c-0.8,1-2.8,3-4.8,3c-2.6,0-4.6-1.9-4.6-4.5c0-3.2,3-4.3,5.2-4.8l3.9-0.8V32c0-1.7-1.2-3-3.5-3
				c-1.6,0-2.7,1-2.5,2.5c0.2,1.4-1.1,2.3-2.8,2.1l-0.7-0.7c0-4,3.8-5.7,6.9-5.7c3.9,0,6.8,1.9,6.8,5.1V40c0,0.5,0.8,1.2,1.3,1.2
				c0.3,0,1.2-0.9,1.5-1.3l0.9,0.9c-0.5,0.7-2.6,3.2-4.3,3.2C49.6,43.9,48.6,42.6,48.3,41z M47.8,35.3l-3,0.8
				c-1.6,0.4-2.6,1.3-2.6,2.9c0,1.4,1.2,2.4,2.5,2.4s2.5-1.4,3.1-2.5V35.3z"/>
			<path d="M28.1,36.5h-7.7L19,40.1c0.1,0.6,1.2,2.2,1.7,2.2h1.1v1.2h-8v-1.2h0.4c0.5,0,2.3-1.6,2.7-2.2l7.6-20.2l2-1.2l8.8,21.4
				c0.4,0.5,2,2.2,2.5,2.2h0.5v1.2H26.6v-1.2h1.2c0.5,0,1.8-1.6,1.8-2.2L28.1,36.5z M24,26.1l-3.1,8.7h6.6l-3.3-8.7
				C24.2,26.1,24,26.1,24,26.1z"/>
		</g>
		<g>
			<g>
				<g>
					<path class="st3" d="M47.3,40h-0.2c-0.8,1-2.8,3-4.8,3c-2.6,0-4.6-1.9-4.6-4.5c0-3.2,3-4.3,5.2-4.8l3.9-0.8V31
						c0-1.7-1.2-3-3.5-3c-1.6,0-2.7,1-2.5,2.5c0.2,1.4-1.1,2.3-2.8,2.1l-0.7-0.7c0-4,3.8-5.7,6.9-5.7c3.9,0,6.8,1.9,6.8,5.1V39
						c0,0.5,0.8,1.2,1.3,1.2c0.3,0,1.2-0.9,1.5-1.3l0.9,0.9c-0.5,0.7-2.6,3.2-4.3,3.2C48.6,42.9,47.6,41.6,47.3,40z M46.8,34.3
						l-3,0.8c-1.6,0.4-2.6,1.3-2.6,2.9c0,1.4,1.2,2.4,2.5,2.4s2.5-1.4,3.1-2.5V34.3z"/>
				</g>
				<g>
					<path class="st4" d="M27.1,35.5h-7.7L18,39.1c0.1,0.6,1.2,2.2,1.7,2.2h1.1v1.2h-8v-1.2h0.4c0.5,0,2.3-1.6,2.7-2.2l7.6-20.2
						l2-1.2l8.8,21.4c0.4,0.5,2,2.2,2.5,2.2h0.5v1.2H25.6v-1.2h1.2c0.5,0,1.8-1.6,1.8-2.2L27.1,35.5z M23,25.1l-3.1,8.7h6.6
						l-3.3-8.7C23.2,25.1,23,25.1,23,25.1z"/>
				</g>
			</g>
		</g>
	</g>
</g>
</svg>
