<?xml version="1.0" encoding="utf-8"?>
<!-- Generator: Adobe Illustrator 21.0.2, SVG Export Plug-In . SVG Version: 6.00 Build 0)  -->
<svg version="1.1" id="Capa_1" xmlns="http://www.w3.org/2000/svg" xmlns:xlink="http://www.w3.org/1999/xlink" x="0px" y="0px"
	 viewBox="0 0 66 66" style="enable-background:new 0 0 66 66;" xml:space="preserve">
<style type="text/css">
	.st0{fill:url(#SVGID_1_);}
	.st1{fill:url(#SVGID_2_);}
	.st2{fill:#ED1C24;}
</style>
<title>Mesa de trabajo 5</title>
<g>
	<g>
		<g>
			
				<radialGradient id="SVGID_1_" cx="47.2641" cy="20.0605" r="74.6787" gradientTransform="matrix(0.8856 0 0 0.8857 3.6974 6.1565)" gradientUnits="userSpaceOnUse">
				<stop  offset="0" style="stop-color:#FFFFFF"/>
				<stop  offset="1" style="stop-color:#A0A7AF"/>
			</radialGradient>
			<path class="st0" d="M64,33c0,17.1-13.9,31-31,31C15.9,64,2,50.1,2,33C2,15.9,15.9,2,33,2C50.1,2,64,15.9,64,33z"/>
		</g>
		<g>
			
				<linearGradient id="SVGID_2_" gradientUnits="userSpaceOnUse" x1="-402.6751" y1="50.8271" x2="-345.2168" y2="50.8271" gradientTransform="matrix(9.200000e-02 -0.9958 0.9958 9.200000e-02 16.7893 -344.051)">
				<stop  offset="0" style="stop-color:#FDF6FA"/>
				<stop  offset="1" style="stop-color:#FFFFFF"/>
			</linearGradient>
			<path class="st1" d="M35.6,4.4c15.8,1.5,27.4,15.5,26,31.3c-1.5,15.8-15.4,27.4-31.2,26c-15.8-1.5-27.4-15.5-26-31.3
				C5.9,14.6,19.8,2.9,35.6,4.4z"/>
		</g>
	</g>
	<g>
		<path class="st2" d="M28,33c1.2-2.4,2.6-5.1,3.7-7.9l0.4-1.1c-1.5-5.6-2.3-10-1.6-12.9c0.2-0.8,1.1-1.2,2-1.2l0.6,0h0.1
			c1.3,0,1.9,1.6,1.9,2.2c0.1,1-0.4,2.8-0.4,2.8c0-0.7,0-1.9-0.4-2.9c-0.5-1.2-1-1.8-1.5-2c-0.2,0.2-0.5,0.5-0.5,1.1
			c-0.2,0.9-0.2,1.9-0.2,2.5c0,2,0.4,4.5,1.1,7.2c0.1-0.4,0.3-0.8,0.4-1.2c0.2-0.6,1.1-4.5,1.1-4.5s-0.2,5.2-0.6,6.7
			c-0.1,0.3-0.2,0.7-0.2,1c1.2,3.5,3.3,6.6,5.7,8.8c0.9,0.9,2.1,1.6,3.3,2.2c2.5-0.4,4.7-0.5,6.6-0.5c2.5,0,4.4,0.4,5.1,1.1
			c0.4,0.4,0.5,0.8,0.6,1.3c0,0.2-0.1,0.6-0.1,0.7c0-0.1,0-0.8-2-1.4c-1.6-0.5-4.6-0.5-8.1-0.1c4.1,2,8.2,3,9.4,2.4
			c0.3-0.2,0.7-0.7,0.7-0.7s-0.2,1-0.4,1.3c-0.2,0.3-0.6,0.6-1,0.7c-2,0.5-7.3-0.7-11.8-3.3c-5.1,0.8-10.7,2.1-15.2,3.6
			C22.3,47,19,50.5,16.3,49.2l-1-0.5c-0.4-0.2-0.5-0.8-0.4-1.3c0.3-1.5,2.2-3.9,6.1-6.2c0.4-0.3,2.3-1.2,2.3-1.2s-1.4,1.3-1.7,1.6
			c-3.1,2.5-5.4,5.7-5.3,7l0,0.1C18.9,48.3,22.9,43,28,33 M29.6,33.9c-0.8,1.6-1.7,3.1-2.4,4.4c4.2-1.8,8.8-2.9,13.1-3.7
			c-0.6-0.4-1.1-0.8-1.7-1.3c-2.4-2-4.2-4.5-5.5-7.2C32.2,28.4,31.2,30.7,29.6,33.9"/>
	</g>
</g>
</svg>
