<?xml version="1.0" encoding="utf-8"?>
<!-- Generator: Adobe Illustrator 21.0.2, SVG Export Plug-In . SVG Version: 6.00 Build 0)  -->
<svg version="1.1" id="Capa_1" xmlns="http://www.w3.org/2000/svg" xmlns:xlink="http://www.w3.org/1999/xlink" x="0px" y="0px"
	 viewBox="0 0 66 66" style="enable-background:new 0 0 66 66;" xml:space="preserve">
<style type="text/css">
	.st0{fill:url(#SVGID_1_);}
	.st1{fill:#E46466;}
	.st2{fill:#FFFFFF;}
</style>
<title>Mesa de trabajo 2</title>
<g>
	<g>
		<g>
			<radialGradient id="SVGID_1_" cx="22.1398" cy="49.6879" r="55.776" gradientUnits="userSpaceOnUse">
				<stop  offset="0" style="stop-color:#FFC9C9"/>
				<stop  offset="0.599" style="stop-color:#91272D"/>
				<stop  offset="1" style="stop-color:#67272D"/>
			</radialGradient>
			<path class="st0" d="M63,33c0,16.6-13.4,30-30,30C16.4,63,3,49.6,3,33C3,16.4,16.4,3,33,3C49.6,3,63,16.4,63,33z"/>
		</g>
		<g>
			
				<ellipse transform="matrix(9.199546e-02 -0.9958 0.9958 9.199546e-02 -2.8964 62.8242)" class="st1" cx="33" cy="33" rx="27.8" ry="27.8"/>
		</g>
	</g>
	<g id="XMLID_10_">
		<path id="XMLID_12_" class="st2" d="M45.3,42l-4.6-6.9v-16h-4.3v-5.2l-7.8,0v5.2h-4.3v16L19.8,42H45.3z M33.8,24.7v5.2h-2.6v-5.2
			H33.8z"/>
		<rect id="XMLID_11_" x="31.2" y="47.1" class="st2" width="2.6" height="5.2"/>
		<path class="st2" d="M40.1,49.7L36.5,46l1.8-1.8l3.7,3.7L40.1,49.7z"/>
		<path class="st2" d="M24.9,49.7l-1.8-1.8l3.7-3.7l1.8,1.8L24.9,49.7z"/>
	</g>
</g>
</svg>
